<?xml version="1.0" encoding="UTF-8" standalone="no"?>
<!-- Created with Inkscape (http://www.inkscape.org/) -->

<svg
   width="320mm"
   height="320mm"
   viewBox="0 0 320 320"
   version="1.1"
   id="svg5"
   xml:space="preserve"
   inkscape:version="1.4 (86a8ad7, 2024-10-11)"
   sodipodi:docname="DsShieldLogoPROPER.svg"
   xmlns:inkscape="http://www.inkscape.org/namespaces/inkscape"
   xmlns:sodipodi="http://sodipodi.sourceforge.net/DTD/sodipodi-0.dtd"
   xmlns="http://www.w3.org/2000/svg"
   xmlns:svg="http://www.w3.org/2000/svg"><sodipodi:namedview
     id="namedview7"
     pagecolor="#ffffff"
     bordercolor="#666666"
     borderopacity="1.0"
     inkscape:showpageshadow="2"
     inkscape:pageopacity="0.0"
     inkscape:pagecheckerboard="0"
     inkscape:deskcolor="#d1d1d1"
     inkscape:document-units="mm"
     showgrid="false"
     inkscape:zoom="0.5946522"
     inkscape:cx="517.109"
     inkscape:cy="737.40584"
     inkscape:window-width="1920"
     inkscape:window-height="1017"
     inkscape:window-x="1358"
     inkscape:window-y="-8"
     inkscape:window-maximized="1"
     inkscape:current-layer="layer1" /><defs
     id="defs2"><rect
       x="-1783.6648"
       y="52.320831"
       width="1455.4705"
       height="423.32309"
       id="rect1851" /><rect
       x="54.699051"
       y="30.916857"
       width="658.76685"
       height="306.79034"
       id="rect20824" /><rect
       x="-1013.1216"
       y="-137.93674"
       width="625.4718"
       height="178.36649"
       id="rect20818" /><inkscape:path-effect
       effect="fillet_chamfer"
       id="path-effect19113"
       is_visible="true"
       lpeversion="1"
       nodesatellites_param="F,0,0,1,0,129.32814,0,1 @ F,0,0,1,0,0,0,1 @ IF,0,0,1,0,40.684158,0,1 @ F,0,0,1,0,0,0,1 @ F,0,0,1,0,129.32814,0,1 @ F,0,0,1,0,0,0,1"
       unit="px"
       method="auto"
       mode="F"
       radius="0"
       chamfer_steps="1"
       flexible="false"
       use_knot_distance="true"
       apply_no_radius="true"
       apply_with_radius="true"
       only_selected="false"
       hide_knots="false" /><inkscape:path-effect
       effect="powerstroke"
       id="path-effect4044"
       is_visible="true"
       lpeversion="1"
       offset_points="0,4.9921382"
       not_jump="false"
       sort_points="true"
       interpolator_type="CubicBezierJohan"
       interpolator_beta="0.2"
       start_linecap_type="zerowidth"
       linejoin_type="extrp_arc"
       miter_limit="4"
       scale_width="1"
       end_linecap_type="zerowidth"
       message="" /><rect
       x="54.699051"
       y="30.916857"
       width="658.76685"
       height="306.79034"
       id="rect20824-5" /><rect
       x="54.699051"
       y="30.916857"
       width="658.76685"
       height="306.79034"
       id="rect20824-54" /><rect
       x="-1013.1216"
       y="-137.93674"
       width="625.4718"
       height="178.36649"
       id="rect20818-2" /><inkscape:path-effect
       effect="fillet_chamfer"
       id="path-effect19113-5"
       is_visible="true"
       lpeversion="1"
       nodesatellites_param="F,0,0,1,0,129.32814,0,1 @ F,0,0,1,0,0,0,1 @ IF,0,0,1,0,40.684158,0,1 @ F,0,0,1,0,0,0,1 @ F,0,0,1,0,129.32814,0,1 @ F,0,0,1,0,0,0,1"
       unit="px"
       method="auto"
       mode="F"
       radius="0"
       chamfer_steps="1"
       flexible="false"
       use_knot_distance="true"
       apply_no_radius="true"
       apply_with_radius="true"
       only_selected="false"
       hide_knots="false" /><inkscape:path-effect
       effect="powerstroke"
       id="path-effect4044-6"
       is_visible="true"
       lpeversion="1"
       offset_points="0,4.9921382"
       not_jump="false"
       sort_points="true"
       interpolator_type="CubicBezierJohan"
       interpolator_beta="0.2"
       start_linecap_type="zerowidth"
       linejoin_type="extrp_arc"
       miter_limit="4"
       scale_width="1"
       end_linecap_type="zerowidth"
       message="" /><rect
       x="54.699051"
       y="30.916857"
       width="658.76685"
       height="306.79034"
       id="rect20824-5-2" /></defs><g
     inkscape:label="Layer 1"
     inkscape:groupmode="layer"
     id="layer1"><rect
       style="fill:#000000;fill-opacity:1;stroke:none;stroke-width:4.60356;stroke-linecap:round;stroke-linejoin:miter;stroke-dasharray:none;stroke-opacity:1"
       id="rect19213"
       width="271.02859"
       height="263.40677"
       x="23.466093"
       y="29.55509"
       inkscape:export-filename="C:\Users\Kevin\Dropbox\DEATH SORCERY\logo3.png"
       inkscape:export-xdpi="28.2749"
       inkscape:export-ydpi="28.2749"
       inkscape:label="BG" /><g
       inkscape:label="Layer 1"
       id="layer1-7"
       transform="matrix(0.78892329,0,0,0.78892329,-61.918132,-77.193657)"><g
         id="g1179"
         inkscape:label="LOGO"
         transform="translate(0.37492496)"><path
           style="opacity:1;fill:#ffffff;fill-opacity:1;stroke:#ffffff;stroke-width:7.09768;stroke-linejoin:bevel"
           d="m 292.7912,235.35762 12.62462,-7.73817 -0.0549,19.56834 9.77739,-2.13628 0.81851,-20.04351 25.63554,-0.13734 0.11696,19.26046 9.72155,3.40669 0.56234,-20.64901 16.23598,8.46882 0.26891,33.73476 2.64538,7.49104 -2.77826,9.17278 2.03109,68.40079 -32.10619,42.85989 -55.24462,51.6983 6.15901,-30.07197 3.54996,-129.44821 -2.77075,-8.59646 2.32348,-9.14983 z"
           id="rect19119"
           sodipodi:nodetypes="ccccccccccccccccccccc"
           inkscape:label="TOWER" /><path
           id="rect19198-4"
           style="fill:#000000;fill-opacity:1;stroke:#ffffff;stroke-width:3.58583;stroke-linecap:round;stroke-linejoin:miter;stroke-dasharray:none;stroke-opacity:1"
           d="m 301.28021,295.70331 c -2.25299,0.002 -4.00308,3.32173 -3.98738,7.05088 l -0.0903,10.03485 -0.22647,11.28833 8.51079,-2.20967 -0.1232,-9.08692 -0.0102,-10.34987 c -0.004,-3.72922 -1.8203,-6.72968 -4.0733,-6.72743 z"
           sodipodi:nodetypes="ssccccsss"
           inkscape:label="WINDOW" /><path
           id="path1480-0-0"
           style="fill:none;stroke:#ffffff;stroke-width:9;stroke-linecap:butt;stroke-miterlimit:4;stroke-dasharray:none"
           d="m 404.96133,223.07234 3.55948,-49.83314 c -51.43545,14.0209 -87.99228,6.94426 -128.8957,-17.97015 -40.90345,24.91441 -77.46029,31.99105 -128.89577,17.97015 l 3.55948,49.83314 c 6.5198,91.27726 44.0391,177.10418 125.33629,226.17173 81.29715,-49.06755 118.81642,-134.89447 125.33622,-226.17173 z"
           sodipodi:nodetypes="scccscs"
           inkscape:label="SHIELD" /><path
           id="path20757"
           style="opacity:1;fill:#ffffff;fill-opacity:1;stroke:none;stroke-width:1.51751;stroke-linecap:round;stroke-linejoin:miter;stroke-dasharray:none;stroke-opacity:1"
           d="m 210.76893,238.7437 a 17.825338,18.787447 2.2440835 0 0 -14.30828,16.79873 17.825338,18.787447 2.2440835 0 0 16.15458,20.32623 17.825338,18.787447 2.2440835 0 0 16.95398,-9.24514 16.243427,17.230242 2.5474074 0 1 -11.73126,3.88284 16.243427,17.230242 2.5474074 0 1 -14.71137,-18.63236 16.243427,17.230242 2.5474074 0 1 7.64235,-13.1303 z"
           inkscape:label="MOON" /></g></g></g></svg>
